<svg width="190" height="40" viewBox="0 0 190 40" fill="none" xmlns="http://www.w3.org/2000/svg">
<path d="M56.7192 23.0145V27.8168H54.2876V12.3428H59.6827C60.4425 12.3428 61.1264 12.4952 61.7723 12.762C62.4182 13.0288 62.9881 13.4099 63.482 13.9054C63.9759 14.4009 64.3559 14.9345 64.6218 15.5824C64.8878 16.2303 65.0397 16.9164 65.0397 17.6405C65.0397 18.4028 64.8878 19.0888 64.6218 19.7368C64.3559 20.3847 63.9759 20.9564 63.482 21.4138C62.9881 21.8711 62.4182 22.2904 61.7723 22.5572C61.1264 22.824 60.4425 22.9764 59.6827 22.9764H56.7192V23.0145ZM59.5307 20.9183C59.9866 20.9183 60.4045 20.8421 60.7845 20.6515C61.1644 20.499 61.5063 20.2704 61.8103 19.9655C62.1142 19.6605 62.3422 19.3556 62.4942 18.9364C62.6462 18.5553 62.7601 18.0979 62.7601 17.6405C62.7601 17.1832 62.6841 16.7639 62.4942 16.3828C62.3422 16.0017 62.1142 15.6586 61.8103 15.3537C61.5063 15.0488 61.2024 14.8201 60.7845 14.6677C60.4045 14.5152 59.9866 14.4009 59.5307 14.4009H56.7192V20.8802H59.5307V20.9183Z" fill="black"/>
<path d="M67.9272 20.08C67.9272 18.9747 68.1551 17.9456 68.5731 16.9928C68.991 16.04 69.5609 15.1634 70.2828 14.4392C71.0046 13.715 71.8405 13.1433 72.8283 12.7241C73.7782 12.3049 74.804 12.0762 75.9058 12.0762C77.0076 12.0762 78.0334 12.3049 78.9833 12.7241C79.9711 13.1433 80.8069 13.715 81.5288 14.4392C82.2507 15.1634 82.8206 16.0019 83.2385 16.9928C83.6564 17.9837 83.8844 18.9747 83.8844 20.08C83.8844 21.1853 83.6564 22.2143 83.2385 23.1672C82.8206 24.12 82.2507 24.9966 81.5288 25.7208C80.8069 26.4449 79.9711 27.0166 78.9833 27.4359C77.9954 27.8551 76.9696 28.0838 75.9058 28.0838C74.804 28.0838 73.7782 27.8551 72.8283 27.4359C71.8785 27.0166 71.0046 26.4449 70.2828 25.7208C69.5609 24.9966 68.991 24.1581 68.5731 23.1672C68.1551 22.1762 67.9272 21.1472 67.9272 20.08ZM70.3968 20.08C70.3968 20.8423 70.5487 21.5664 70.8147 22.2143C71.1186 22.8623 71.4986 23.4721 71.9925 23.9675C72.4864 24.463 73.0943 24.8823 73.7402 25.1491C74.3861 25.454 75.1079 25.5683 75.8678 25.5683C76.6277 25.5683 77.3495 25.4159 77.9954 25.1491C78.6413 24.8442 79.2492 24.463 79.7431 23.9675C80.237 23.4721 80.655 22.8623 80.9209 22.2143C81.2249 21.5664 81.3389 20.8423 81.3389 20.08C81.3389 19.3177 81.1869 18.5936 80.9209 17.9456C80.617 17.2977 80.237 16.6879 79.7431 16.1924C79.2492 15.6969 78.6413 15.2777 77.9954 15.0109C77.3495 14.706 76.6277 14.5917 75.8678 14.5917C75.1079 14.5917 74.3861 14.7441 73.7402 15.0109C73.0943 15.3158 72.4864 15.6969 71.9925 16.1924C71.4986 16.6879 71.0806 17.2977 70.8147 17.9456C70.5487 18.5936 70.3968 19.3177 70.3968 20.08Z" fill="black"/>
<path d="M87.9117 27.8168V12.3428H92.281C93.3448 12.3428 94.3326 12.5333 95.2825 12.9526C96.1943 13.3718 97.0302 13.9054 97.714 14.6296C98.3979 15.3156 98.9678 16.1541 99.3858 17.0688C99.8037 17.9836 99.9937 19.0126 99.9937 20.0798C99.9937 21.147 99.8037 22.1379 99.3858 23.0908C98.9678 24.0436 98.4359 24.844 97.714 25.5681C97.0302 26.2542 96.1943 26.8259 95.2825 27.2451C94.3706 27.6644 93.3448 27.8549 92.281 27.8549H87.9117V27.8168ZM90.3433 14.6296V25.5681H92.129C92.8889 25.5681 93.6108 25.4157 94.2946 25.1489C94.9405 24.8821 95.5484 24.5009 96.0043 24.0055C96.4983 23.51 96.8782 22.9383 97.1441 22.2523C97.4101 21.6043 97.5621 20.8802 97.5621 20.0798C97.5621 19.3175 97.4101 18.5934 97.1441 17.9073C96.8782 17.2594 96.4983 16.6496 96.0043 16.1922C95.5104 15.6968 94.9405 15.3156 94.2566 15.0488C93.6108 14.782 92.8889 14.6296 92.129 14.6296H90.3433Z" fill="black"/>
<path d="M112 12.3428H121.194V14.439H114.469V18.9364H120.434V21.0326H114.469V27.8168H112.038V12.3428H112Z" fill="black"/>
<path d="M124.499 20.08C124.499 18.9747 124.727 17.9456 125.145 16.9928C125.563 16.04 126.133 15.1634 126.855 14.4392C127.577 13.715 128.413 13.1433 129.401 12.7241C130.35 12.3049 131.376 12.0762 132.478 12.0762C133.58 12.0762 134.606 12.3049 135.555 12.7241C136.543 13.1433 137.379 13.715 138.101 14.4392C138.823 15.1634 139.393 16.0019 139.811 16.9928C140.229 17.9456 140.457 18.9747 140.457 20.08C140.457 21.1853 140.229 22.2143 139.811 23.1672C139.393 24.12 138.823 24.9966 138.101 25.7208C137.379 26.4449 136.543 27.0166 135.555 27.4359C134.568 27.8551 133.542 28.0838 132.478 28.0838C131.414 28.0838 130.35 27.8551 129.401 27.4359C128.451 27.0166 127.577 26.4449 126.855 25.7208C126.133 24.9966 125.563 24.1581 125.145 23.1672C124.689 22.1762 124.499 21.1472 124.499 20.08ZM126.931 20.08C126.931 20.8423 127.083 21.5664 127.349 22.2143C127.653 22.8623 128.033 23.4721 128.527 23.9675C129.021 24.463 129.628 24.8823 130.274 25.1491C130.92 25.454 131.642 25.5683 132.402 25.5683C133.162 25.5683 133.884 25.4159 134.53 25.1491C135.176 24.8442 135.783 24.463 136.277 23.9675C136.771 23.4721 137.189 22.8623 137.455 22.2143C137.759 21.5664 137.873 20.8423 137.873 20.08C137.873 19.3177 137.721 18.5936 137.455 17.9456C137.151 17.2977 136.771 16.6879 136.277 16.1924C135.783 15.6969 135.176 15.2777 134.53 15.0109C133.884 14.706 133.162 14.5917 132.402 14.5917C131.642 14.5917 130.92 14.7441 130.274 15.0109C129.628 15.3158 129.021 15.6969 128.527 16.1924C128.033 16.6879 127.615 17.2977 127.349 17.9456C127.083 18.5936 126.931 19.3177 126.931 20.08Z" fill="black"/>
<path d="M143.762 20.08C143.762 18.9747 143.99 17.9456 144.408 16.9928C144.826 16.04 145.396 15.1634 146.118 14.4392C146.839 13.715 147.675 13.1433 148.663 12.7241C149.613 12.3049 150.639 12.0762 151.741 12.0762C152.842 12.0762 153.868 12.3049 154.818 12.7241C155.806 13.1433 156.642 13.715 157.364 14.4392C158.086 15.1634 158.655 16.0019 159.073 16.9928C159.491 17.9456 159.719 18.9747 159.719 20.08C159.719 21.1853 159.491 22.2143 159.073 23.1672C158.655 24.12 158.086 24.9966 157.364 25.7208C156.642 26.4449 155.806 27.0166 154.818 27.4359C153.83 27.8551 152.804 28.0838 151.741 28.0838C150.639 28.0838 149.613 27.8551 148.663 27.4359C147.713 27.0166 146.839 26.4449 146.118 25.7208C145.396 24.9966 144.826 24.1581 144.408 23.1672C143.952 22.1762 143.762 21.1472 143.762 20.08ZM146.194 20.08C146.194 20.8423 146.346 21.5664 146.612 22.2143C146.915 22.8623 147.295 23.4721 147.789 23.9675C148.283 24.463 148.891 24.8823 149.537 25.1491C150.183 25.454 150.905 25.5683 151.665 25.5683C152.425 25.5683 153.146 25.4159 153.792 25.1491C154.438 24.8442 155.046 24.463 155.54 23.9675C156.034 23.4721 156.452 22.8623 156.718 22.2143C157.022 21.5664 157.136 20.8423 157.136 20.08C157.136 19.3177 156.984 18.5936 156.718 17.9456C156.414 17.2977 156.034 16.6879 155.54 16.1924C155.046 15.6969 154.438 15.2777 153.792 15.0109C153.146 14.706 152.425 14.5917 151.665 14.5917C150.905 14.5917 150.183 14.7441 149.537 15.0109C148.891 15.3158 148.283 15.6969 147.789 16.1924C147.295 16.6879 146.877 17.2977 146.612 17.9456C146.346 18.5936 146.194 19.3177 146.194 20.08Z" fill="black"/>
<path d="M163.709 27.8168V12.3428H168.078C169.142 12.3428 170.129 12.5333 171.079 12.9526C171.991 13.3718 172.827 13.9054 173.511 14.6296C174.195 15.3156 174.765 16.1541 175.183 17.0688C175.6 17.9836 175.79 19.0126 175.79 20.0798C175.79 21.147 175.6 22.1379 175.183 23.0908C174.765 24.0436 174.233 24.844 173.511 25.5681C172.827 26.2542 171.991 26.8259 171.079 27.2451C170.167 27.6644 169.142 27.8549 168.078 27.8549H163.709V27.8168ZM166.14 14.6296V25.5681H167.926C168.686 25.5681 169.408 25.4157 170.091 25.1489C170.737 24.8821 171.345 24.5009 171.801 24.0055C172.295 23.51 172.675 22.9383 172.941 22.2523C173.207 21.6043 173.359 20.8802 173.359 20.0798C173.359 19.3175 173.207 18.5934 172.941 17.9073C172.675 17.2594 172.295 16.6496 171.801 16.1922C171.307 15.6968 170.737 15.3156 170.053 15.0488C169.408 14.782 168.686 14.6296 167.926 14.6296H166.14Z" fill="black"/>
<path d="M184.719 28.1601C184.073 28.1601 183.503 28.0838 182.933 27.9695C182.363 27.8171 181.831 27.6646 181.376 27.4359C180.882 27.2072 180.464 26.9404 180.122 26.6737C179.742 26.3687 179.438 26.0638 179.21 25.7208L180.996 24.2344C181.414 24.6918 181.945 25.0729 182.591 25.3778C183.237 25.6827 183.959 25.8352 184.757 25.8352C185.631 25.8352 186.315 25.6446 186.771 25.3016C187.227 24.9586 187.454 24.5393 187.454 24.0057C187.454 23.5102 187.303 23.1291 186.999 22.7861C186.695 22.4431 186.239 22.1382 185.555 21.8714L182.667 20.6136C181.414 20.08 180.502 19.4702 179.97 18.7461C179.4 18.0219 179.134 17.1834 179.134 16.1925C179.134 15.5827 179.248 15.0491 179.514 14.5155C179.78 14.02 180.122 13.5626 180.578 13.1815C181.034 12.8004 181.565 12.5336 182.211 12.3049C182.857 12.0762 183.541 12 184.339 12C185.213 12 186.011 12.1525 186.657 12.4192C187.302 12.686 187.872 13.0672 188.328 13.4864C188.784 13.9438 189.126 14.4393 189.354 15.011C189.582 15.5827 189.696 16.1544 189.696 16.6879H187.302C187.302 16.5355 187.265 16.3068 187.151 16.04C187.037 15.7732 186.885 15.5064 186.657 15.2396C186.429 14.9728 186.125 14.7442 185.745 14.5536C185.365 14.363 184.871 14.2868 184.339 14.2868C183.503 14.2868 182.857 14.4774 182.401 14.8204C181.907 15.1634 181.679 15.6208 181.679 16.1925C181.679 16.6879 181.831 17.0691 182.135 17.4121C182.439 17.717 182.895 18.0219 183.465 18.2506L186.391 19.5465C187.606 20.08 188.518 20.6899 189.126 21.414C189.696 22.1382 190 22.9767 190 24.0057C190 24.6918 189.848 25.3016 189.582 25.797C189.316 26.3306 188.936 26.7499 188.442 27.0929C187.948 27.4359 187.416 27.7027 186.771 27.8552C186.087 28.0457 185.441 28.1601 184.719 28.1601Z" fill="black"/>
<path d="M0.109006 22.02C-0.498888 16.2649 1.43877 10.2811 5.84601 5.85993C13.6347 -1.95331 26.2485 -1.95331 34.0371 5.85993C41.8257 13.6732 41.8257 26.3268 34.0371 34.1401C26.2485 41.9533 13.6347 41.9533 5.84601 34.1401C5.58005 33.8733 5.3141 33.5684 5.04815 33.3016L10.2152 28.1182C10.4432 28.4231 10.7092 28.6899 11.0131 28.9948C15.9143 33.9114 23.9309 33.9114 28.87 28.9566C33.8091 24.0019 33.8091 15.96 28.87 11.0434C23.9309 6.08861 15.9143 6.08861 11.0131 11.0434L0.109006 22.02Z" fill="url(#paint0_linear)"/>
<defs>
<linearGradient id="paint0_linear" x1="-0.00497389" y1="19.9938" x2="39.8747" y2="19.9938" gradientUnits="userSpaceOnUse">
<stop stop-color="#672891"/>
<stop offset="0.3002" stop-color="#7F2390"/>
<stop offset="0.5" stop-color="#92208F"/>
<stop offset="1" stop-color="#9E035D"/>
</linearGradient>
</defs>
</svg>
